<svg xmlns="http://www.w3.org/2000/svg" viewBox="0 0 645.08 107.76"><defs><style>.a{fill:#fff;}</style></defs><title>logo_white</title><path class="a" d="M13.76,13H.9V1H58.6V107.86h-13V13.4H21.47v94.46h-13V17.11L13.76,14Z" transform="translate(-0.9 -0.26)"/><path class="a" d="M71,13H58.17V1h57.7V107.86h-13V13.4H78.74v94.46h-13V17.11L71,14Z" transform="translate(-0.9 -0.26)"/><path class="a" d="M150.57.84h5.81V107.36h-5.81Z" transform="translate(-0.9 -0.26)"/><path class="a" d="M197.47,5.61h-5.06V.88h22.74V43H210V5.78h-9.52V43h-5.12V7.25L197.47,6Z" transform="translate(-0.9 -0.26)"/><path class="a" d="M249.43,6.62v29.8l-6.36,6.76H235l-6.3-6.76V6.62L235,.26h8Zm-8.56,31.49,3.43-3.66V8.71l-3.37-3.38H237.1l-3.38,3.38V34.45l3.44,3.66Z" transform="translate(-0.9 -0.26)"/><path class="a" d="M281.46,18.17h1.68l7.6-17.4h5.63l-8.78,19.71L297.84,43h-5.63l-9.07-20.28h-1.68V43h-5.12V22.73h-1.7L265.58,43H260L270.2,20.48,261.42.77h5.63l7.59,17.4h1.7V.77h5.12Z" transform="translate(-0.9 -0.26)"/><path class="a" d="M321.2,26.9,318,6H317l-3.09,21ZM309.26,6V.82h13.23L328.74,43h-5.18l-1.63-11h-8.78l-1.63,11h-5.18l5.18-35.37,2.13-1.3V6Z" transform="translate(-0.9 -0.26)"/><path class="a" d="M345.68,24h6l3.49-3.72V9.39L351.7,6h-6ZM353.79.82l6.53,6.43V22.34l-6.48,6.82h-8.16V43h-5.12V7.47l2.14-1.29v-.4h-5.18v-5Z" transform="translate(-0.9 -0.26)"/><path class="a" d="M370.84,6.06V.94H379V19.52h9.51V.94h5.12V43h-5.12V24.43H379V43h-5.13V7.7l2.09-1.24v-.4Z" transform="translate(-0.9 -0.26)"/><path class="a" d="M427.86,6.62v29.8l-6.36,6.76h-8.1l-6.31-6.76V6.62L413.45.26h8.05Zm-8.55,31.49,3.43-3.66V8.71l-3.38-3.38h-3.82l-3.38,3.38V34.45l3.43,3.66Z" transform="translate(-0.9 -0.26)"/><path class="a" d="M447,19.58h9.52v5.13H447V37.89h7.54V33.55h5.13V43H441.88V7.64L444,6.34V6h-5.13V.82h20.27v10H454V6h-7Z" transform="translate(-0.9 -0.26)"/><path class="a" d="M197.47,70.46h-5.06V65.73h22.74v42.13H210V70.63h-9.52v37.23h-5.12V72.09l2.08-1.24Z" transform="translate(-0.9 -0.26)"/><path class="a" d="M234.29,88.88h6l3.49-3.72V74.23l-3.43-3.43h-6Zm8.1-23.21,6.53,6.42v15.1L242.45,94h-8.16v13.86h-5.13V72.32L231.3,71v-.39h-5.18v-5Z" transform="translate(-0.9 -0.26)"/><path class="a" d="M282.64,71.47v29.8L276.28,108h-8.11l-6.3-6.75V71.47l6.36-6.36h8ZM274.08,103l3.44-3.66V73.55l-3.38-3.37h-3.83l-3.38,3.37V99.3l3.44,3.66Z" transform="translate(-0.9 -0.26)"/><path class="a" d="M301.78,84.43h9.51v5.12h-9.51v13.18h7.54V98.39h5.12v9.47H296.65V72.48l2.14-1.29V70.8h-5.12V65.67h20.26v10h-5.12V70.8h-7Z" transform="translate(-0.9 -0.26)"/><path class="a" d="M333.07,65.79V82.74h2.7l8.05-16.95h5.63l-9.23,19.54,10.53,22.53h-5.63l-9.35-20h-2.7v20H328V72.6l2.14-1.3v-.39h-5.18V65.79Z" transform="translate(-0.9 -0.26)"/><path class="a" d="M366.9,107.86V70.23h-4.39v4.45H358V65.61h23.14v9.07h-4.56V70.23H372v37.63Z" transform="translate(-0.9 -0.26)"/><path class="a" d="M394.88,70.91h-5.07V65.79h8.11V80.6l-.79,17h.17l4.16-16.67,4.79-15.09h6.92v42.07h-5.12V87.58l1-14.64h-.17l-4,14.19-6.59,20.73H392.8V72.54l2.08-1.24Z" transform="translate(-0.9 -0.26)"/><path class="a" d="M432.31,88.88h6l3.49-3.72V74.23l-3.44-3.43h-6Zm8.1-23.21L447,72.09v15.1L440.47,94h-8.16v13.86h-5.12V72.32l2.14-1.3v-.39h-5.18v-5Z" transform="translate(-0.9 -0.26)"/><path class="a" d="M465.63,83.92H471l3-3.55V74.23L470.7,71h-5.07Zm0,5.18v13.58h6.19l3.27-3.27V92.65l-3.6-3.55ZM457.47,71V65.73h15.37l6.3,6.36V82.4l-3.09,3.72,4.22,4.17v11.26L474,107.86H460.45V72.66l2.14-1.3V71Z" transform="translate(-0.9 -0.26)"/><path class="a" d="M514.38,71.47v29.8L508,108h-8.11l-6.3-6.75V71.47L500,65.11h8ZM505.82,103l3.44-3.66V73.55l-3.38-3.37h-3.83l-3.37,3.37V99.3l3.43,3.66Z" transform="translate(-0.9 -0.26)"/><path class="a" d="M540.55,91.75l-3.15-21h-1.07l-3.1,21Zm-11.93-21V65.67h13.23l6.24,42.19h-5.17l-1.63-11H532.5l-1.63,11h-5.18l5.18-35.38L533,71.19V70.8Z" transform="translate(-0.9 -0.26)"/><path class="a" d="M557,70.91V65.79h8.1V84.37h9.52V65.79h5.12v42.07h-5.12V89.27h-9.52v18.59H560V72.54l2.08-1.24v-.39Z" transform="translate(-0.9 -0.26)"/><path class="a" d="M595.88,70.91h-5.06V65.79h8.11V80.6l-.79,17h.16l4.17-16.67,4.78-15.09h6.93v42.07h-5.13V87.58l1-14.64h-.17l-4,14.19-6.59,20.73H593.8V72.54l2.08-1.24Z" transform="translate(-0.9 -0.26)"/><path class="a" d="M633.32,84.43h9.51v5.12h-9.51v13.18h7.54V98.39H646v9.47H628.2V72.48l2.13-1.29V70.8h-5.12V65.67h20.27v10h-5.13V70.8h-7Z" transform="translate(-0.9 -0.26)"/></svg>